<svg width="18" height="19" viewBox="0 0 18 19" fill="none" xmlns="http://www.w3.org/2000/svg">
<path fill-rule="evenodd" clip-rule="evenodd" d="M9.49607 0C9.2289 0 9.01673 0.200535 9.01673 0.448673V12.4754L6.82099 10.4362C6.63243 10.2611 6.32997 10.2611 6.14141 10.4362C5.95286 10.6112 5.95286 10.8921 6.14141 11.0672L9.1581 13.8687C9.25247 13.9562 9.37429 14 9.4999 14C9.62172 14 9.74732 13.9562 9.8417 13.8687L12.8586 11.0672C13.0471 10.8921 13.0471 10.6112 12.8586 10.4362C12.6701 10.2611 12.3676 10.2611 12.1791 10.4362L9.98306 12.4754V0.448673C9.97923 0.200535 9.76308 0 9.49607 0Z" fill="white"/>
<path fill-rule="evenodd" clip-rule="evenodd" d="M17.5461 17H0.453877C0.202861 17 0 17.2235 0 17.5C0 17.7763 0.202861 18 0.453877 18H17.5461C17.7971 18 18 17.7763 18 17.5C18 17.2235 17.7971 17 17.5461 17Z" fill="white"/>
</svg>
