<svg width="41" height="39" viewBox="0 0 41 39" fill="none" xmlns="http://www.w3.org/2000/svg">
<path fill-rule="evenodd" clip-rule="evenodd" d="M7.01569 13.3462C6.56424 12.8746 6.46005 12.1916 6.74919 11.6168C7.03832 11.0421 7.6521 10.7195 8.30803 10.7878L40.0263 15.2835C40.3162 15.3251 40.5575 15.5148 40.6612 15.7869C40.7624 16.0503 40.7108 16.358 40.5197 16.571L24.1622 35.1039C23.6696 35.6426 22.8642 35.7672 22.2303 35.4037C21.9554 35.246 21.7397 35.0123 21.6048 34.7296L18.5472 28.4076L12.7383 30.2306C12.5174 30.3018 12.2876 30.2727 12.0912 30.16C12.0183 30.1182 11.9461 30.0622 11.8892 29.9928C11.6767 29.7536 11.629 29.411 11.7688 29.1318L15.3552 22.1112L7.01569 13.3462ZM16.2949 23.75L14.0289 28.177L17.859 26.9789L16.2949 23.75ZM23.0036 34.0215L17.4393 22.5147L37.4261 17.6857L23.0036 34.0215ZM16.5647 21.1113L36.3257 16.3361L8.23323 12.3582L16.5647 21.1113Z" fill="white"/>
</svg>
