<svg width="26" height="37" viewBox="0 0 26 37" fill="none" xmlns="http://www.w3.org/2000/svg">
<path fill-rule="evenodd" clip-rule="evenodd" d="M23.177 3.98922V18.3281C24.3151 18.823 25.0929 19.9663 25.0929 21.2418V24.9594C25.0929 27.9982 23.9097 30.8544 21.7613 33.0019C19.6139 35.1501 16.7578 36.3334 13.719 36.3334C10.7055 36.3334 7.86582 35.1668 5.72283 33.0485C3.63006 30.9797 2.43749 28.2364 2.35006 25.3042L1.14138 23.2873C0.842487 22.7885 0.68457 22.2185 0.68457 21.6385C0.68457 20.5146 1.28276 19.4582 2.24575 18.8814C2.83888 18.5259 3.5152 18.3742 4.19124 18.4381C4.13346 18.1959 4.10207 17.9473 4.10207 17.6965C4.10207 16.573 4.69992 15.5167 5.66221 14.9397C6.21047 14.6113 6.82013 14.4675 7.41811 14.4885L3.72235 8.32096C3.42346 7.82214 3.26554 7.25235 3.26554 6.67304C3.26554 5.54922 3.86367 4.49283 4.82665 3.91603C6.34568 3.00596 8.322 3.5011 9.23221 5.01943L16.7544 17.5722V3.98922C16.7544 3.13144 17.0883 2.32505 17.6949 1.71846C18.3015 1.11193 19.1079 0.777832 19.9657 0.777832C21.7364 0.777832 23.177 2.21839 23.177 3.98922ZM18.7367 2.76033C18.4084 3.0886 18.2276 3.52505 18.2276 3.98922V18.0672H21.7036V3.98922C21.7036 3.03089 20.9239 2.25123 19.9656 2.25123C19.5014 2.25123 19.065 2.432 18.7367 2.76033ZM4.98624 7.56374C4.82436 7.29367 4.73895 6.98568 4.73895 6.67304C4.73895 6.05499 5.05485 5.49686 5.58388 5.17999C6.4061 4.68728 7.47596 4.95512 7.96853 5.77693L15.3334 18.0673H15.0227C13.8365 18.0673 12.7993 18.7142 12.2432 19.6733L10.0682 16.0433L10.0637 16.036L10.059 16.0283L10.0532 16.0193L10.0502 16.0145L10.0479 16.011L4.98624 7.56374ZM7.30867 15.9578C7.00485 15.9578 6.69763 16.0371 6.41964 16.2036C5.89124 16.5204 5.57554 17.0787 5.57568 17.6967C5.57568 18.0094 5.6611 18.3173 5.8229 18.5873L8.35992 22.8216C8.85235 23.6437 9.92207 23.9119 10.7445 23.4192C11.5621 22.9293 11.8313 21.8663 11.3477 21.0451L11.3413 21.0346L8.8086 16.8076C8.80394 16.8005 8.7995 16.7935 8.79513 16.7863C8.46895 16.2532 7.89513 15.9578 7.30867 15.9578ZM3.71401 24.7137L3.71381 24.7135L2.40547 22.5303C2.24367 22.2603 2.15818 21.952 2.15818 21.6387C2.15804 21.0206 2.47395 20.4624 3.00318 20.1455C3.4011 19.9069 3.86825 19.8377 4.31853 19.9505C4.76881 20.0633 5.14825 20.3449 5.38693 20.7433L7.92478 24.9776C8.16339 25.3755 8.23263 25.8427 8.11978 26.2929C8.00693 26.7432 7.72533 27.1226 7.32693 27.3613C6.5052 27.8539 5.43575 27.586 4.94325 26.7642L3.72999 24.7402C3.72678 24.7344 3.72335 24.7289 3.71992 24.7234L3.71991 24.7234L3.71401 24.7137ZM20.7195 31.9602C22.5898 30.0907 23.6196 27.6046 23.6195 24.9596H23.6194V21.2421C23.6194 20.4475 23.0573 19.7485 22.2827 19.5798C22.1642 19.5538 22.0418 19.5407 21.9181 19.5407H16.6358L16.6342 19.5408L16.6325 19.5407H15.0226C14.0642 19.5407 13.2845 20.3204 13.2845 21.2787C13.2845 21.3701 13.2917 21.4617 13.3058 21.5508C13.3631 21.9153 13.5317 22.2459 13.7937 22.5078C14.1219 22.8361 14.5583 23.0169 15.0226 23.0169H16.5875C16.9944 23.0169 17.3242 23.3467 17.3242 23.7535C17.3242 24.1604 16.9944 24.4902 16.5875 24.4902H15.0226C14.1648 24.4902 13.3584 24.1562 12.7518 23.5496C12.7237 23.5215 12.6962 23.4928 12.6693 23.4638C12.4046 23.9521 12.0111 24.3779 11.5016 24.6832C10.986 24.9921 10.4175 25.1391 9.8561 25.1391C9.75638 25.1391 9.657 25.1328 9.55797 25.1236C9.67728 25.6201 9.67638 26.1414 9.54867 26.6511C9.34013 27.4832 8.81992 28.1842 8.08401 28.6251C7.56853 28.934 7.00006 29.0811 6.43874 29.0811C5.71561 29.0811 5.00492 28.8357 4.432 28.3798C5.83492 32.1535 9.48325 34.8601 13.719 34.8601C16.3641 34.8601 18.8503 33.8302 20.7195 31.9602Z" fill="white"/>
</svg>
