<svg width="210" height="134" viewBox="0 0 210 134" fill="none" xmlns="http://www.w3.org/2000/svg">
<path fill-rule="evenodd" clip-rule="evenodd" d="M16.6032 3.06975C10.4625 -3.10168 -0.000488281 1.29288 -0.000488281 10.0433V89.757C-0.000488281 95.1885 4.35873 99.5941 9.73637 99.5941H89.067C97.7538 99.5941 102.092 88.9715 95.9338 82.7835L16.6032 3.06975Z" fill="#F93251"/>
<path fill-rule="evenodd" clip-rule="evenodd" d="M94.1568 0.235353L42.8811 0.262965C38.9117 0.264346 36.9407 5.08828 39.7531 7.9172L65.3786 33.6937C67.1245 35.4498 69.9492 35.4553 71.6882 33.7075L97.3397 7.9034C100.149 5.07862 98.1372 0.232591 94.1568 0.235353Z" fill="#F93251"/>
<path fill-rule="evenodd" clip-rule="evenodd" d="M209.49 79.3636C209.49 90.2789 200.694 99.126 189.844 99.126C178.992 99.126 170.196 90.2789 170.196 79.3636C170.196 68.4497 178.992 59.6026 189.844 59.6026C200.694 59.6026 209.49 68.4497 209.49 79.3636Z" fill="#F93251"/>
<path fill-rule="evenodd" clip-rule="evenodd" d="M127.887 96.7348L207.134 16.9369C213.269 10.7599 208.899 0.235352 200.201 0.235352H120.954C115.553 0.235352 111.176 4.62025 111.176 10.0296V89.8275C111.176 98.5655 121.734 102.93 127.887 96.7348Z" fill="#F93251"/>
<path fill-rule="evenodd" clip-rule="evenodd" d="M12.0082 122.547L6.99374 128.227V122.547H5.70654V134H6.99374V129.512L8.15054 128.446L12.1825 134H13.6957L9.0814 127.522L13.5291 122.547H12.0082Z" fill="white"/>
<path fill-rule="evenodd" clip-rule="evenodd" d="M33.0977 134H34.2344V122.547H33.0977V134Z" fill="white"/>
<path fill-rule="evenodd" clip-rule="evenodd" d="M65.6494 122.547L60.6349 128.227V122.547H59.3477V134H60.6349V129.512L61.7916 128.446L65.8237 134H67.3368L62.7225 127.522L67.1702 122.547H65.6494Z" fill="white"/>
<path fill-rule="evenodd" clip-rule="evenodd" d="M83.3154 122.547V134H90.1633V132.809H84.7438V128.594H89.8363V127.419H84.7438V123.73H90.1633V122.547H83.3154Z" fill="white"/>
<path fill-rule="evenodd" clip-rule="evenodd" d="M205.602 129.178L204.254 125.644C204.08 125.197 203.9 124.648 203.715 123.997C203.6 124.496 203.432 125.045 203.216 125.644L201.853 129.178H205.602ZM207.464 134L206.022 130.371H201.377L199.95 134H198.587L203.168 122.547H204.302L208.859 134H207.464Z" fill="black"/>
<path fill-rule="evenodd" clip-rule="evenodd" d="M117.669 128.352H118.798C119.911 128.352 120.717 128.161 121.215 127.78C121.712 127.399 121.96 126.788 121.96 125.947C121.96 125.19 121.727 124.626 121.259 124.256C120.791 123.884 120.061 123.699 119.072 123.699H117.669V128.352ZM123.261 125.884C123.261 127.043 122.888 127.935 122.141 128.559C121.395 129.183 120.327 129.495 118.939 129.495H117.669V134H116.413V122.547H119.213C121.911 122.547 123.261 123.659 123.261 125.884Z" fill="white"/>
<path fill-rule="evenodd" clip-rule="evenodd" d="M149.511 134H142.663V122.547H149.511V123.729H144.091V127.419H149.183V128.594H144.091V132.809H149.511V134Z" fill="white"/>
<path fill-rule="evenodd" clip-rule="evenodd" d="M175.922 121.2C175.693 121.2 175.469 121.15 175.251 121.051C175.033 120.95 174.817 120.84 174.607 120.718C174.397 120.596 174.194 120.486 174 120.386C173.805 120.287 173.618 120.237 173.436 120.237C173.169 120.237 172.969 120.317 172.832 120.48C172.697 120.642 172.592 120.887 172.517 121.217H171.734C171.802 120.563 171.99 120.052 172.297 119.682C172.603 119.313 172.999 119.128 173.484 119.128C173.73 119.128 173.966 119.177 174.195 119.277C174.424 119.378 174.644 119.488 174.851 119.61C175.059 119.731 175.259 119.842 175.45 119.941C175.643 120.041 175.824 120.091 175.995 120.091C176.255 120.091 176.45 120.012 176.577 119.852C176.706 119.693 176.809 119.445 176.89 119.111H177.681C177.612 119.765 177.427 120.276 177.126 120.646C176.824 121.015 176.423 121.2 175.922 121.2ZM179.185 134H177.633L171.245 124.066H171.181C171.267 125.232 171.309 126.3 171.309 127.273V134H170.054V122.163H171.589L177.961 132.056H178.025C178.014 131.911 177.991 131.442 177.953 130.652C177.916 129.862 177.902 129.295 177.913 128.955V122.163H179.185V134Z" fill="white"/>
<path fill-rule="evenodd" clip-rule="evenodd" d="M202.178 129.178L200.831 125.644C200.656 125.197 200.476 124.648 200.291 123.997C200.176 124.496 200.008 125.045 199.792 125.644L198.43 129.178H202.178ZM204.04 134L202.598 130.371H197.954L196.527 134H195.163L199.744 122.547H200.878L205.435 134H204.04Z" fill="white"/>
</svg>
