<svg width="214" height="97" viewBox="0 0 214 97" fill="none" xmlns="http://www.w3.org/2000/svg">
<path fill-rule="evenodd" clip-rule="evenodd" d="M95.0935 80.6472L16.4582 3.10536C10.3712 -2.89793 0 1.37689 0 9.88894V87.4307C0 92.7142 4.32101 96.9998 9.65152 96.9998H88.2868C96.8975 96.9998 101.198 86.6666 95.0935 80.6472Z" fill="white"/>
<path fill-rule="evenodd" clip-rule="evenodd" d="M93.9137 6.7657e-07L48.6757 0.0237473C45.1736 0.0253067 43.4351 4.20204 45.9168 6.65179L68.5238 28.9681C70.0641 30.4887 72.5572 30.4945 74.0913 28.9801L96.7223 6.64C99.2005 4.19371 97.4256 -0.00194514 93.9137 6.7657e-07Z" fill="white"/>
<path fill-rule="evenodd" clip-rule="evenodd" d="M132.608 94.1725L211.16 16.5481C217.241 10.5394 212.911 0.301514 204.288 0.301513L125.736 0.30151C120.384 0.30151 116.042 4.56697 116.042 9.82895L116.042 87.4533C116.042 95.9533 126.51 100.199 132.608 94.1725Z" fill="white"/>
<ellipse cx="196.819" cy="80.0404" rx="17.1803" ry="16.9594" fill="white"/>
</svg>
